<svg width="210" height="210" viewBox="0 0 210 210" fill="none" xmlns="http://www.w3.org/2000/svg">
<circle cx="104.867" cy="104.867" r="104.867" fill="#FF6600" fill-opacity="0.34"/>
<circle cx="104.867" cy="104.867" r="104.867" fill="#FF6600" fill-opacity="0.34"/>
<circle cx="104.867" cy="104.867" r="89.7417" fill="#FF6600"/>
<circle cx="104.867" cy="104.867" r="89.7417" fill="#FF6600"/>
<path fill-rule="evenodd" clip-rule="evenodd" d="M122.368 62.5167C114.559 62.5167 109.169 67.9304 105.724 74.4069L105.093 75.5917L104.461 74.4059C101.017 67.9304 95.6283 62.5167 87.8178 62.5167C81.7093 62.5167 76.7402 67.4867 76.7402 73.5952C76.7402 75.4294 77.1859 77.2252 78.0521 78.8426L78.6157 79.8943H62.8887C61.5688 79.8943 60.5 80.9631 60.5 82.283V102.558C60.5 103.877 61.5688 104.946 62.8887 104.946H66.2929V145.797C66.2929 147.117 67.3617 148.186 68.6816 148.186H141.505C142.825 148.186 143.894 147.117 143.894 145.797V104.946H147.194C148.513 104.946 149.583 103.877 149.583 102.558V82.283C149.583 80.9631 148.514 79.8943 147.194 79.8943H131.57L132.134 78.8426C132.999 77.2252 133.446 75.4304 133.446 73.5952C133.446 67.4867 128.476 62.5167 122.368 62.5167ZM102.704 84.6728V100.17H65.2775V84.6728H102.704ZM107.481 100.17V84.6728H144.805V100.17H107.481ZM102.704 143.408H71.0704V104.946H102.704V143.408ZM139.116 104.946V143.408H107.481V104.946H139.116ZM108.854 78.894C111.278 73.3351 115.632 67.2952 122.369 67.2952C125.792 67.2952 128.669 70.1739 128.669 73.5962C128.669 77.0488 126.03 79.8519 122.544 79.8953H108.417L108.854 78.894ZM87.6342 79.8943C84.1575 79.8509 81.5177 77.0467 81.5177 73.5952C81.5177 70.1729 84.3955 67.2941 87.8178 67.2941C94.5353 67.2941 98.8893 73.3613 101.319 78.892L101.76 79.8943H87.6342Z" fill="white"/>
<defs>
<rect width="89.0822" height="85.669" fill="white" transform="translate(60.5 62.5167)"/>
</defs>
</svg>
