<svg width="151" height="24" viewBox="0 0 151 24" fill="none" xmlns="http://www.w3.org/2000/svg">
<g clip-path="url(#clip0)">
<path fill-rule="evenodd" clip-rule="evenodd" d="M136.944 7.60719C137.203 6.94746 137.275 6.94178 137.534 7.60719L139.603 13.5388H134.874L136.944 7.60719ZM123.474 23.7267H131.295L133.101 18.9009H141.377L143.183 23.7267H150.999L142.493 2.84805C141.41 0.234665 139.44 0 137.239 0C133.692 0 132.707 1.10608 131.985 2.84833L123.474 23.7267ZM122.822 0.268148H117.108V14.2425C117.108 14.4102 117.108 14.812 116.747 14.812C116.484 14.812 116.287 14.4775 116.123 14.2425L107.749 2.17839C106.337 0.133932 104.136 0 102.888 0C100.228 0 97.7323 1.10608 97.7323 4.15531V23.727H103.447V9.81934C103.447 9.14855 103.808 9.14855 103.906 9.14855C104.136 9.14855 104.366 9.48366 104.531 9.71833L112.839 21.682C114.285 23.7659 116.091 24 117.831 24C122.659 24 122.822 20.644 122.822 19.8061V0.268148H122.822ZM95.4338 23.7267V18.0292H84.2023C83.7423 18.0292 83.1515 18.063 82.7905 17.7279C82.6262 17.5939 82.4619 17.3252 82.4619 16.8565V14.3098H95.0067V9.21551H82.4619V7.43977C82.4619 7.13814 82.4619 6.60213 82.8228 6.30021C83.0858 6.06555 83.5452 5.96481 83.9723 5.96481H95.3351V0.268148H78.8165C77.9953 0.268148 76.8792 0.402365 76.0247 1.20681C75.1713 2.01126 75.0398 2.98255 75.0398 3.88716V19.9735C75.0398 21.079 75.0398 22.0174 76.0912 22.9223C76.9782 23.6598 77.93 23.727 78.8821 23.727H95.4338V23.7267ZM49.129 23.7267H56.5511V7.9423C56.5511 7.37224 56.5183 6.90348 56.9782 6.46734C57.3063 6.13223 57.7006 6.09903 58.1274 6.09903H62.2322C62.9218 6.09903 63.7426 6.06526 64.3013 6.66853C65.0523 7.43637 65.0162 9.74642 64.3672 10.5892C63.8411 11.2265 62.9549 11.2932 62.2981 11.2932H61.1158C59.2108 11.2932 57.7988 12.366 57.7988 13.9406V14.444C57.7988 15.583 58.6196 16.5883 59.3751 17.6271L63.8083 23.7267H72.7413L66.1735 16.5883H67.1587C68.9319 16.5883 70.5738 15.7507 71.4275 13.6727C72.2155 11.7628 72.2814 8.98085 72.2814 7.90882C72.2814 6.13251 72.0843 4.05514 71.0994 2.5467C69.5881 0.268432 67.0597 0.268432 65.6146 0.268432H53.1026C52.2155 0.268432 50.8697 0.435848 50.0158 1.40742C49.1949 2.34552 49.1288 3.68654 49.1288 4.75886V23.7267H49.129ZM28.834 11.9974C28.834 10.054 28.8666 8.77966 29.6877 7.54022C30.6729 5.99886 31.9536 5.83145 33.8586 5.83145C35.7962 5.83145 37.011 5.99886 38.0296 7.54022C38.9163 8.84748 38.8832 9.95356 38.8832 11.9974C38.8832 13.8739 38.8832 15.1812 38.0296 16.4544C37.011 17.9966 35.7962 18.1632 33.8586 18.1632C31.9867 18.1632 30.6729 17.9963 29.6877 16.4544C28.9325 15.2816 28.834 13.8407 28.834 11.9974ZM33.8586 0C30.3778 0 26.2725 0.100449 23.8097 2.41334C21.3135 4.75886 21.2154 8.84748 21.2154 11.9974C21.2154 15.0807 21.3135 19.2026 23.8097 21.5818C26.2394 23.8995 30.4429 24 33.8586 24C37.2735 24 41.4779 23.8995 43.9078 21.5818C46.4035 19.2026 46.5025 15.0807 46.5025 11.9974C46.5025 8.84748 46.4037 4.75886 43.9078 2.41334C41.4448 0.100449 37.3397 0 33.8586 0ZM20.887 23.7267V17.8953H8.96559C7.91924 17.8953 7.42178 17.5965 7.42178 16.4544V0.268148H0V20.7101C0 21.6817 0.493006 22.5534 1.01855 22.989C1.64196 23.5253 2.62797 23.7265 3.51444 23.7265H20.887V23.7267Z" fill="white"/>
<path fill-rule="evenodd" clip-rule="evenodd" d="M148.53 3.35995V1.99764C148.53 1.92613 148.535 1.87449 148.541 1.84356C148.549 1.81433 148.559 1.79646 148.568 1.79305C148.579 1.7834 148.595 1.77688 148.619 1.77205C148.643 1.76865 148.667 1.76553 148.692 1.76553C148.716 1.76411 148.735 1.76411 148.749 1.76411H149.016C149.034 1.76411 149.056 1.76241 149.085 1.76411C149.112 1.76411 149.14 1.76723 149.169 1.77376C149.196 1.78028 149.22 1.79305 149.235 1.81263C149.247 1.82398 149.256 1.84356 149.267 1.87279C149.277 1.90031 149.283 1.92301 149.283 1.93918V2.04588C149.283 2.06233 149.277 2.08503 149.265 2.11426C149.254 2.14349 149.24 2.16619 149.226 2.18236C149.212 2.19201 149.192 2.19854 149.165 2.20336C149.138 2.20818 149.102 2.21131 149.054 2.21131H148.94C148.859 2.21301 148.797 2.24223 148.755 2.29728C148.713 2.35432 148.692 2.42895 148.692 2.52259C148.692 2.57621 148.698 2.62162 148.709 2.65737C148.72 2.69454 148.736 2.72717 148.757 2.75612C148.777 2.78704 148.8 2.81769 148.825 2.85344L149.188 3.35938H150.008L149.416 2.71724H149.521C149.625 2.71554 149.707 2.69142 149.768 2.64261C149.83 2.59551 149.874 2.53394 149.903 2.45959C149.931 2.38496 149.95 2.30693 149.958 2.22436C149.966 2.1432 149.971 2.06716 149.97 1.99735C149.971 1.92102 149.968 1.83987 149.961 1.75559C149.955 1.67104 149.936 1.59158 149.904 1.51696C149.874 1.44233 149.822 1.38246 149.75 1.33535C149.709 1.31095 149.648 1.29166 149.569 1.2786C149.489 1.26413 149.381 1.2576 149.245 1.2576H148.406C148.296 1.2576 148.207 1.25931 148.142 1.26243C148.076 1.26583 148.026 1.27208 147.993 1.28201C147.959 1.29166 147.934 1.30641 147.919 1.32571C147.9 1.345 147.888 1.3694 147.88 1.39863C147.872 1.42616 147.867 1.45368 147.864 1.47979C147.862 1.50561 147.862 1.52519 147.862 1.53966V3.35938H148.53V3.35995ZM148.93 3.86588C148.754 3.86588 148.587 3.84971 148.428 3.81736C148.269 3.78473 148.128 3.73621 148.002 3.67123C147.878 3.60625 147.781 3.52538 147.71 3.42805C147.669 3.3713 147.632 3.29667 147.6 3.20416C147.568 3.11194 147.545 2.99504 147.527 2.85373C147.509 2.7127 147.5 2.54075 147.5 2.33814C147.5 2.26323 147.502 2.17726 147.506 2.08021C147.51 1.98146 147.521 1.87903 147.538 1.77376C147.556 1.6682 147.583 1.56605 147.621 1.4673C147.659 1.36997 147.71 1.28399 147.777 1.20937C147.852 1.12992 147.939 1.06664 148.039 1.02124C148.139 0.977255 148.242 0.943488 148.35 0.923909C148.458 0.902911 148.562 0.889575 148.663 0.885035C148.764 0.880211 148.853 0.876806 148.93 0.878508C149.015 0.877089 149.11 0.880494 149.213 0.886737C149.318 0.891561 149.425 0.906032 149.533 0.927314C149.641 0.948312 149.743 0.98066 149.838 1.02606C149.935 1.07146 150.016 1.13162 150.085 1.20937C150.139 1.27435 150.185 1.3538 150.22 1.44942C150.256 1.54505 150.285 1.6489 150.305 1.75928C150.326 1.86966 150.34 1.97976 150.348 2.09014C150.358 2.20052 150.361 2.30267 150.361 2.39688C150.362 2.46158 150.359 2.54443 150.353 2.64659C150.345 2.74874 150.329 2.85742 150.305 2.97262C150.28 3.08953 150.242 3.20133 150.188 3.31142C150.136 3.4201 150.062 3.51431 149.97 3.59376C149.889 3.65874 149.797 3.71067 149.692 3.74784C149.589 3.78501 149.484 3.81083 149.379 3.82899C149.274 3.84517 149.182 3.85652 149.101 3.86134C149.021 3.86418 148.964 3.86588 148.93 3.86588ZM148.93 4.46914C148.784 4.47056 148.635 4.46574 148.484 4.45269C148.333 4.44134 148.182 4.41551 148.034 4.37324C147.886 4.33266 147.743 4.26768 147.605 4.1817C147.468 4.09402 147.341 3.97569 147.224 3.82672C147.107 3.66924 147.025 3.50551 146.973 3.33526C146.922 3.16501 146.89 2.99646 146.877 2.82932C146.865 2.66219 146.86 2.50499 146.861 2.35744C146.86 2.21131 146.865 2.05098 146.879 1.8725C146.893 1.69402 146.928 1.51554 146.987 1.33394C147.046 1.15233 147.141 0.983498 147.271 0.829419C147.389 0.696337 147.521 0.592483 147.665 0.516437C147.808 0.441809 147.956 0.385058 148.109 0.351007C148.26 0.316957 148.406 0.294256 148.548 0.286311C148.689 0.27638 148.818 0.273259 148.93 0.274677C149.104 0.273259 149.283 0.281487 149.468 0.300783C149.652 0.320078 149.832 0.36406 150.008 0.430459C150.184 0.496858 150.347 0.600712 150.494 0.741738C150.615 0.860064 150.709 0.988321 150.779 1.12793C150.847 1.26725 150.898 1.41027 150.93 1.55612C150.962 1.70197 150.981 1.84498 150.989 1.9809C150.998 2.11852 151.001 2.24365 151 2.35716C151.001 2.54358 150.99 2.732 150.968 2.92154C150.944 3.1128 150.9 3.2961 150.831 3.47288C150.765 3.64796 150.664 3.80856 150.533 3.95299C150.385 4.10878 150.224 4.2237 150.048 4.29832C149.872 4.37295 149.689 4.42005 149.498 4.44105C149.309 4.46262 149.119 4.47085 148.93 4.46914Z" fill="white"/>
</g>
<defs>
<clipPath id="clip0">
<rect width="151" height="24" fill="white"/>
</clipPath>
</defs>
</svg>
