<?xml version="1.0" encoding="UTF-8"?>
<!DOCTYPE svg PUBLIC "-//W3C//DTD SVG 1.1//EN" "http://www.w3.org/Graphics/SVG/1.1/DTD/svg11.dtd">
<svg xmlns="http://www.w3.org/2000/svg">
	<defs>
		<clipPath id="clip0">
			<path fill="#fff" d="M0 0h151v24H0z"/>
		</clipPath>
	</defs>
<symbol id="icon-present" viewBox="0 0 210 210">
	<circle cx="104.867" cy="104.867" r="104.867" fill="#F60" fill-opacity=".34"/>
	<circle cx="104.867" cy="104.867" r="104.867" fill="#F60" fill-opacity=".34"/>
	<circle cx="104.867" cy="104.867" r="89.742" fill="#F60"/>
	<circle cx="104.867" cy="104.867" r="89.742" fill="#F60"/>
	<path fill="#fff" fill-rule="evenodd" d="M122.368 62.517c-7.809 0-13.199 5.413-16.644 11.89l-.631 1.185-.632-1.186c-3.444-6.476-8.833-11.89-16.643-11.89-6.109 0-11.078 4.97-11.078 11.08 0 1.833.446 3.63 1.312 5.247l.564 1.051H62.889a2.388 2.388 0 00-2.389 2.389v20.275a2.388 2.388 0 002.389 2.388h3.404v40.851a2.388 2.388 0 002.389 2.389h72.823a2.388 2.388 0 002.389-2.389v-40.851h3.3a2.389 2.389 0 002.389-2.388V82.283a2.388 2.388 0 00-2.389-2.389H131.57l.564-1.051a11.1 11.1 0 001.312-5.248c0-6.108-4.97-11.078-11.078-11.078zm-19.664 22.156v15.497H65.278V84.673h37.426zm4.777 15.497V84.673h37.324v15.497h-37.324zm-4.777 43.238H71.07v-38.462h31.634v38.462zm36.412-38.462v38.462h-31.635v-38.462h31.635zm-30.262-26.052c2.424-5.559 6.778-11.599 13.515-11.599 3.423 0 6.3 2.879 6.3 6.301 0 3.453-2.639 6.256-6.125 6.3h-14.127l.437-1.002zm-21.22 1c-3.477-.043-6.116-2.847-6.116-6.299 0-3.422 2.877-6.3 6.3-6.3 6.717 0 11.071 6.066 13.501 11.597l.441 1.002H87.634z" clip-rule="evenodd"/>
</symbol>
<symbol id="logo" viewBox="0 0 151 24">
	<g fill="#fff" fill-rule="evenodd" clip-path="url(#clip0)" clip-rule="evenodd">
		<path d="M136.944 7.607c.259-.66.331-.665.59 0l2.069 5.932h-4.729l2.07-5.932zm-13.47 16.12h7.821l1.806-4.826h8.276l1.806 4.826h7.816l-8.506-20.879C141.41.235 139.44 0 137.239 0c-3.547 0-4.532 1.106-5.254 2.848l-8.511 20.879zM122.822.268h-5.714v13.974c0 .168 0 .57-.361.57-.263 0-.46-.335-.624-.57l-8.374-12.064C106.337.134 104.136 0 102.888 0c-2.66 0-5.156 1.106-5.156 4.155v19.572h5.715V9.819c0-.67.361-.67.459-.67.23 0 .46.335.625.57l8.308 11.963c1.446 2.084 3.252 2.318 4.992 2.318 4.828 0 4.991-3.356 4.991-4.194V.268zM95.434 23.727v-5.698H84.202c-.46 0-1.05.034-1.412-.301-.164-.134-.328-.403-.328-.872V14.31h12.545V9.216H82.462V7.44c0-.302 0-.838.36-1.14.264-.234.723-.335 1.15-.335h11.363V.268H78.817c-.822 0-1.938.134-2.792.939-.854.804-.985 1.776-.985 2.68v16.087c0 1.105 0 2.043 1.051 2.948.887.738 1.839.805 2.791.805h16.552zm-46.305 0h7.422V7.942c0-.57-.033-1.039.427-1.475.328-.335.723-.368 1.15-.368h4.104c.69 0 1.51-.034 2.07.57.75.767.714 3.077.065 3.92-.526.637-1.412.704-2.069.704h-1.182c-1.905 0-3.317 1.073-3.317 2.648v.503c0 1.139.82 2.144 1.576 3.183l4.433 6.1h8.933l-6.567-7.139h.985c1.773 0 3.415-.837 4.268-2.915.788-1.91.854-4.692.854-5.764 0-1.776-.197-3.854-1.182-5.362C69.59.268 67.06.268 65.615.268H53.103c-.888 0-2.233.168-3.087 1.14-.821.938-.887 2.279-.887 3.35v18.969zm-20.295-11.73c0-1.943.033-3.217.854-4.457.985-1.541 2.266-1.709 4.17-1.709 1.938 0 3.153.168 4.172 1.71.886 1.306.853 2.413.853 4.456 0 1.877 0 3.184-.853 4.457-1.019 1.543-2.234 1.71-4.171 1.71-1.872 0-3.186-.168-4.171-1.71-.755-1.172-.854-2.613-.854-4.457zM33.859 0c-3.481 0-7.587.1-10.05 2.413-2.495 2.346-2.594 6.434-2.594 9.584 0 3.084.099 7.206 2.595 9.585C26.24 23.899 30.443 24 33.859 24c3.414 0 7.619-.1 10.049-2.418 2.495-2.38 2.594-6.501 2.594-9.585 0-3.15-.098-7.238-2.594-9.584C41.445.1 37.34 0 33.858 0zM20.887 23.727v-5.832H8.966c-1.047 0-1.544-.299-1.544-1.44V.267H0V20.71c0 .972.493 1.843 1.019 2.279.623.536 1.609.738 2.495.738h17.373zM148.53 3.36V1.998c0-.072.005-.124.011-.154.008-.03.018-.048.027-.051a.108.108 0 01.051-.021.516.516 0 01.073-.006c.024-.002.043-.002.057-.002h.267c.018 0 .04-.002.069 0 .027 0 .055.003.084.01.027.006.051.02.066.039.012.011.021.03.032.06.01.027.016.05.016.066v.107c0 .016-.006.039-.018.068a.225.225 0 01-.039.068.157.157 0 01-.061.021.643.643 0 01-.111.008h-.114a.226.226 0 00-.185.086.37.37 0 00-.063.226c0 .053.006.099.017.134.011.038.027.07.048.1.02.03.043.06.068.096l.363.506h.82l-.592-.642h.105a.394.394 0 00.247-.074.411.411 0 00.135-.183.918.918 0 00.055-.236 2.534 2.534 0 00.003-.469.732.732 0 00-.057-.238.388.388 0 00-.154-.182.536.536 0 00-.181-.056 1.918 1.918 0 00-.324-.021h-.839a5.8 5.8 0 00-.264.004.683.683 0 00-.149.02.14.14 0 00-.074.044.161.161 0 00-.039.073.493.493 0 00-.016.08c-.002.027-.002.046-.002.06v1.82h.668v.001zm.4.506c-.176 0-.343-.016-.502-.049a1.643 1.643 0 01-.426-.146.829.829 0 01-.292-.243.868.868 0 01-.11-.224 1.79 1.79 0 01-.073-.35 4.164 4.164 0 01-.027-.516c0-.075.002-.16.006-.258.004-.099.015-.201.032-.306.018-.106.045-.208.083-.307a.835.835 0 01.156-.258.829.829 0 01.262-.188c.1-.044.203-.078.311-.097.108-.021.212-.034.313-.039.101-.005.19-.008.267-.006.085-.002.18.001.283.008.105.005.212.019.32.04.108.021.21.054.305.1a.747.747 0 01.247.182c.054.065.1.145.135.24.036.096.065.2.085.31.021.11.035.22.043.331a3.372 3.372 0 01.005.557c-.008.102-.024.21-.048.326a1.45 1.45 0 01-.117.338.866.866 0 01-.218.283.943.943 0 01-.278.154 1.847 1.847 0 01-.313.081 3.056 3.056 0 01-.278.032l-.171.005zm0 .603a4.653 4.653 0 01-.446-.016 2.253 2.253 0 01-.45-.08 1.624 1.624 0 01-.429-.191 1.554 1.554 0 01-.632-.847 2.411 2.411 0 01-.096-.506 6.023 6.023 0 01-.016-.472 5.68 5.68 0 01.018-.485 2.32 2.32 0 01.108-.538 1.398 1.398 0 01.678-.818 1.81 1.81 0 01.444-.165 2.68 2.68 0 01.439-.065c.141-.01.27-.013.382-.011a4.8 4.8 0 01.538.026c.184.02.364.063.54.13a1.44 1.44 0 01.771.697c.068.14.119.282.151.428.032.146.051.289.059.425.009.138.012.263.011.376.001.187-.01.375-.032.565a2.29 2.29 0 01-.137.55 1.504 1.504 0 01-.298.481c-.148.156-.309.27-.485.345a1.943 1.943 0 01-.55.143 4.64 4.64 0 01-.568.028z"/>
	</g>

</symbol>
</svg>